<svg xmlns="http://www.w3.org/2000/svg" width="20" height="20" viewBox="0 0 20 20">
    <g fill="#2f5491">
        <path d="M18.631 18.634h-3.815v-2.387l-1.098-1.105-4.387-1.093v-.554c2.322-1.864 3.061-7.273.06-8.885.029-.895.272-1.694.712-2.254.513-.658 1.289-.991 2.303-.991 1.403 0 2.335.627 2.771 1.864.639 1.81-.044 4.558-1.406 5.652l-.256.205v1.376l4.425 1.103.691.697v6.372zm.012-8.302l-3.504-.873c1.457-1.625 2.08-4.555 1.329-6.685C15.837.985 14.394 0 12.406 0 10.97 0 9.8.524 9.025 1.515c-.558.711-.882 1.645-.974 2.68-.208-.027-.413-.058-.644-.058-5.22 0-4.664 7.158-1.923 9.358v.554l-4.387 1.093L0 16.247V20h20v-8.301l-1.357-1.367z" />
    </g>
</svg>
