<svg xmlns="http://www.w3.org/2000/svg" width="20" height="20" viewBox="0 0 20 20">
    <g fill="#eb0037">
        <path d="M18.636 18.634h-3.857v-2.41l-1.095-1.103-4.376-1.091v-.551c.73-.321 1.643-.718 2.597-1.101 0-2.412-.325-6.391-2.658-7.755.528-2.153 1.578-3.258 3.152-3.258 2.792 0 3.483 3.464 3.542 6.56-.742.305-1.442.609-2.019.861l-.409.181v1.496l4.431 1.104.692.696v6.371zm.006-8.303l-3.08-.765c.418-.179.863-.366 1.319-.548l.428-.172v-.463c0-7.294-3.076-8.383-4.91-8.383-1.63 0-3.584.797-4.453 4.191-.18-.025-.361-.047-.557-.047-4.035 0-4.515 5.288-4.515 8.234.954.383 1.867.78 2.597 1.101v.551l-4.376 1.091L0 16.224V20h20v-8.302l-1.358-1.367z" />
    </g>
</svg>
